<svg width="36" height="36" viewBox="0 0 36 36" fill="none" xmlns="http://www.w3.org/2000/svg">
<g id="briefcase" style="mix-blend-mode:luminosity">
<path id="Vector" d="M31.5 17.9252V27.0002C31.5 30.0002 30 31.5002 27 31.5002H9C6 31.5002 4.5 30.0002 4.5 27.0002V17.9102C4.95 18.4352 5.52 18.8402 6.195 19.1102C7.845 19.7552 10.11 20.5203 12.75 21.0603C13.365 21.1803 13.965 20.8802 14.31 20.3702C15.12 19.1552 16.47 18.2703 18 18.2703C19.53 18.2703 20.88 19.1552 21.69 20.3702C22.05 20.8802 22.65 21.1803 23.265 21.0603C25.905 20.5203 28.17 19.7552 29.805 19.1102C30.465 18.8402 31.05 18.4352 31.5 17.9252Z" fill="#7D7366"/>
<path id="Vector_2" d="M31.5 13.5V17.9249C31.05 18.4349 30.465 18.84 29.805 19.11C28.17 19.755 25.905 20.5201 23.265 21.0601C22.65 21.1801 22.05 20.8799 21.69 20.3699C20.88 19.1549 19.53 18.2701 18 18.2701C16.47 18.2701 15.12 19.1549 14.31 20.3699C13.965 20.8799 13.365 21.1801 12.75 21.0601C10.11 20.5201 7.845 19.755 6.195 19.11C5.52 18.84 4.95 18.4349 4.5 17.9099V13.5C4.5 10.5 6 9 9 9H27C30 9 31.5 10.5 31.5 13.5Z" fill="#F8B500"/>
<path id="Vector_3" d="M25.125 6.75V9H22.875V6.75C22.875 6.54 22.71 6.375 22.5 6.375H13.5C13.29 6.375 13.125 6.54 13.125 6.75V9H10.875V6.75C10.875 5.31 12.045 4.125 13.5 4.125H22.5C23.94 4.125 25.125 5.31 25.125 6.75Z" fill="#F8B500"/>
<path id="Vector_4" d="M18.003 24C17.1765 24 16.5 23.328 16.5 22.5C16.5 21.672 17.1645 21 17.991 21H18.003C18.8295 21 19.5 21.672 19.5 22.5C19.5 23.328 18.8295 24 18.003 24Z" fill="#F8B500"/>
</g>
</svg>
