<svg width="24" height="24" viewBox="0 0 24 24" fill="none" xmlns="http://www.w3.org/2000/svg">
<path d="M11.991 1.99902C11.439 1.99902 10.991 2.44638 10.991 2.99826V13.5522L7.99097 10.5864L6.58496 11.9914L11.272 16.7067C11.663 17.0964 12.319 17.0964 12.71 16.7067L17.397 11.9914L15.991 10.5864L12.991 13.5522V2.99826C12.991 2.44638 12.543 1.99892 11.991 1.99902Z" fill="currentColor"/>
<path d="M4 14C3.448 14 3 14.448 3 15V17C3 19.209 4.791 21 7 21H17C19.209 21 21 19.209 21 17V15C21 14.448 20.552 14 20 14C19.448 14 19 14.448 19 15V17C19 18.105 18.105 19 17 19H7C5.895 19 5 18.105 5 17V15C5 14.448 4.552 14 4 14Z" fill="currentColor"/>
</svg>
