<svg width="47" height="42" viewBox="0 0 47 42" fill="none" xmlns="http://www.w3.org/2000/svg">
<path d="M9.05078 18.4902C7.43229 18.4902 5.94987 18.082 4.60352 17.2656C3.25716 16.4492 2.18294 15.3678 1.38086 14.0215C0.578776 12.6751 0.177734 11.1999 0.177734 9.5957C0.177734 7.97721 0.578776 6.49479 1.38086 5.14844C2.18294 3.80208 3.25 2.72786 4.58203 1.92578C5.92839 1.1237 7.41797 0.722656 9.05078 0.722656C10.6549 0.722656 12.1302 1.1237 13.4766 1.92578C14.8229 2.72786 15.8971 3.80208 16.6992 5.14844C17.5013 6.49479 17.9023 7.97721 17.9023 9.5957C17.9023 11.2142 17.5013 12.6966 16.6992 14.043C15.8971 15.375 14.8229 16.4492 13.4766 17.2656C12.1302 18.082 10.6549 18.4902 9.05078 18.4902ZM9.05078 15.2461C10.0677 15.2461 10.9987 14.9883 11.8438 14.4727C12.7031 13.957 13.3906 13.2695 13.9062 12.4102C14.4219 11.5508 14.6797 10.6126 14.6797 9.5957C14.6797 8.57878 14.4219 7.64062 13.9062 6.78125C13.3906 5.92188 12.7031 5.23438 11.8438 4.71875C10.9987 4.20312 10.0677 3.94531 9.05078 3.94531C8.03385 3.94531 7.0957 4.20312 6.23633 4.71875C5.37695 5.23438 4.68945 5.92188 4.17383 6.78125C3.6582 7.64062 3.40039 8.57878 3.40039 9.5957C3.40039 10.6126 3.6582 11.5508 4.17383 12.4102C4.68945 13.2695 5.37695 13.957 6.23633 14.4727C7.0957 14.9883 8.03385 15.2461 9.05078 15.2461ZM9.05078 41.9727C7.43229 41.9727 5.94987 41.5716 4.60352 40.7695C3.25716 39.9674 2.18294 38.8932 1.38086 37.5469C0.578776 36.2005 0.177734 34.7181 0.177734 33.0996C0.177734 31.4954 0.578776 30.0202 1.38086 28.6738C2.18294 27.3275 3.25 26.2533 4.58203 25.4512C5.92839 24.6348 7.41797 24.2266 9.05078 24.2266C10.6549 24.2266 12.1302 24.6348 13.4766 25.4512C14.8229 26.2533 15.8971 27.3275 16.6992 28.6738C17.5013 30.0059 17.9023 31.4811 17.9023 33.0996C17.9023 34.7181 17.5013 36.2005 16.6992 37.5469C15.8971 38.8932 14.8229 39.9674 13.4766 40.7695C12.1302 41.5716 10.6549 41.9727 9.05078 41.9727ZM9.05078 38.75C10.0677 38.75 10.9987 38.4922 11.8438 37.9766C12.7031 37.4609 13.3906 36.7734 13.9062 35.9141C14.4219 35.0547 14.6797 34.1165 14.6797 33.0996C14.6797 32.0827 14.4219 31.1445 13.9062 30.2852C13.3906 29.4258 12.7031 28.7383 11.8438 28.2227C10.9987 27.707 10.0677 27.4492 9.05078 27.4492C8.03385 27.4492 7.0957 27.707 6.23633 28.2227C5.37695 28.7383 4.68945 29.4258 4.17383 30.2852C3.6582 31.1445 3.40039 32.0827 3.40039 33.0996C3.40039 34.1165 3.6582 35.0547 4.17383 35.9141C4.68945 36.7734 5.37695 37.4609 6.23633 37.9766C7.0957 38.4922 8.03385 38.75 9.05078 38.75ZM24.1758 11.293C23.7031 11.293 23.3092 11.1283 22.9941 10.7988C22.679 10.4694 22.5215 10.0755 22.5215 9.61719C22.5215 9.14453 22.679 8.75065 22.9941 8.43555C23.3092 8.12044 23.7031 7.96289 24.1758 7.96289H44.6074C45.0801 7.96289 45.4811 8.12044 45.8105 8.43555C46.14 8.75065 46.3047 9.14453 46.3047 9.61719C46.3047 10.0755 46.14 10.4694 45.8105 10.7988C45.4811 11.1283 45.0801 11.293 44.6074 11.293H24.1758ZM24.1758 34.7969C23.7031 34.7969 23.3092 34.6393 22.9941 34.3242C22.679 33.9948 22.5215 33.5938 22.5215 33.1211C22.5215 32.6484 22.679 32.2546 22.9941 31.9395C23.3092 31.6243 23.7031 31.4668 24.1758 31.4668H44.6074C45.0801 31.4668 45.4811 31.6243 45.8105 31.9395C46.14 32.2546 46.3047 32.6484 46.3047 33.1211C46.3047 33.5938 46.14 33.9948 45.8105 34.3242C45.4811 34.6393 45.0801 34.7969 44.6074 34.7969H24.1758Z" fill="#5B5B5B"/>
</svg>
