<svg width="28" height="28" viewBox="0 0 28 28" fill="none" xmlns="http://www.w3.org/2000/svg">
<path d="M11.608 21.3418L8.30851 24.6413C6.94062 26.0092 4.72544 26.0092 3.3587 24.6416C1.9917 23.2746 1.9917 21.0592 3.35843 19.6924L9.95848 13.0924C11.3252 11.7256 13.5406 11.7256 14.9073 13.0924C15.363 13.548 16.1017 13.548 16.5573 13.0924C17.0129 12.6368 17.0129 11.898 16.5573 11.4424C14.2793 9.16438 10.5865 9.16438 8.30851 11.4424L1.70851 18.0424C-0.569505 20.3204 -0.569505 24.0132 1.70851 26.2912C3.98626 28.5704 7.67931 28.5704 9.95853 26.2912L13.258 22.9918C13.7136 22.5361 13.7136 21.7974 13.258 21.3418C12.8024 20.8862 12.0636 20.8862 11.608 21.3418Z" fill="#F8B500"/>
<path d="M26.295 1.70851C24.017 -0.569505 20.3231 -0.569505 18.045 1.70851L14.0864 5.66713C13.6308 6.12275 13.6308 6.86149 14.0864 7.3171C14.542 7.77272 15.2808 7.77272 15.7364 7.3171L19.695 3.35848C21.0617 1.9917 23.2783 1.9917 24.6451 3.35848C26.0118 4.72522 26.0118 6.94062 24.6451 8.30736L17.3859 15.5666C16.0191 16.9334 13.8037 16.9334 12.437 15.5666C11.9814 15.111 11.2426 15.111 10.787 15.5666C10.3314 16.0222 10.3314 16.761 10.787 17.2166C13.065 19.4946 16.7578 19.4946 19.0358 17.2166L26.295 9.95738C28.5731 7.67936 28.5731 3.98653 26.295 1.70851Z" fill="#F8B500"/>
</svg>
