<svg width="24" height="24" viewBox="0 0 24 24" fill="none" xmlns="http://www.w3.org/2000/svg">
<g id="map-location">
<path id="map-location_2" d="M12.001 10.751C13.334 10.751 14.418 9.66698 14.418 8.33398C14.418 7.00098 13.334 5.91699 12.001 5.91699C10.668 5.91699 9.58401 7.00098 9.58401 8.33398C9.58401 9.66698 10.668 10.751 12.001 10.751ZM12.001 7.41699C12.506 7.41699 12.918 7.82798 12.918 8.33398C12.918 8.83998 12.507 9.25098 12.001 9.25098C11.495 9.25098 11.084 8.83998 11.084 8.33398C11.084 7.82798 11.496 7.41699 12.001 7.41699ZM20.965 7.37598C20.457 7.05998 19.803 7.04108 19.215 7.33008L18.062 7.90698C17.841 4.75198 15.21 2.25 12 2.25C8.875 2.25 6.296 4.61903 5.957 7.65503L3.65601 8.81006C2.78901 9.24506 2.25 10.1181 2.25 11.0891V19.5C2.25 20.113 2.56 20.6709 3.078 20.9939C3.595 21.3159 4.23302 21.347 4.78702 21.074L8.19 19.3621C8.271 19.3241 8.345 19.303 8.439 19.302C8.54 19.296 8.61202 19.3059 8.68802 19.3359L14.779 21.613C15.019 21.706 15.262 21.752 15.463 21.752C15.512 21.752 15.558 21.7499 15.601 21.7439C15.884 21.7439 16.162 21.6779 16.468 21.5339L20.347 19.584C21.213 19.148 21.751 18.2749 21.751 17.3059V8.89111C21.751 8.23911 21.465 7.68698 20.965 7.37598ZM12.001 3.75C14.528 3.75 16.584 5.80698 16.584 8.33398C16.584 8.53298 16.566 8.72506 16.539 8.91406V8.91504C16.198 11.302 13.811 12.906 12.001 14.103C10.047 12.812 7.418 11.047 7.418 8.33398C7.418 5.80698 9.47401 3.75 12.001 3.75ZM4.12 19.731C4.009 19.786 3.916 19.749 3.871 19.72C3.826 19.692 3.75101 19.626 3.75101 19.5V11.0891C3.75101 10.6901 3.97302 10.3299 4.33002 10.1509L6.01001 9.30811C6.22901 10.5661 6.853 11.623 7.651 12.52V17.9719C7.612 17.9879 7.574 17.9949 7.534 18.0139L4.12 19.731ZM9.22202 17.9341C9.19902 17.9251 9.174 17.923 9.151 17.915V13.9199C9.865 14.4879 10.598 14.9731 11.233 15.3931L11.585 15.626C11.711 15.71 11.856 15.752 12.001 15.752C12.146 15.752 12.291 15.71 12.417 15.626L12.769 15.3931C13.404 14.9741 14.137 14.4879 14.851 13.9199V20.0381L9.22202 17.9341ZM20.251 17.3059C20.251 17.7049 20.029 18.0649 19.673 18.2439L16.351 19.9141V12.52C17.076 11.706 17.662 10.7599 17.928 9.65088L19.882 8.6731C20.01 8.6101 20.12 8.61593 20.173 8.64893C20.243 8.69293 20.251 8.83311 20.251 8.89111V17.3059Z" fill="#8E8E8E"/>
</g>
</svg>
