<svg width="24" height="24" viewBox="0 0 24 24" fill="none" xmlns="http://www.w3.org/2000/svg">
<path d="M3.54931 18.6761H3.662L9.09863 17.493C9.20452 17.4754 9.30266 17.4263 9.3803 17.3522L18.5915 8.14093C18.9246 7.80854 19.1883 7.41323 19.3672 6.978C19.5462 6.54277 19.6368 6.07631 19.6338 5.60574C19.635 4.64785 19.2608 3.7276 18.5915 3.04236C18.2591 2.70924 17.8638 2.44555 17.4286 2.26662C16.9934 2.0877 16.5269 1.99711 16.0563 2.00014C15.583 1.99594 15.1139 2.08876 14.6779 2.27286C14.2419 2.45696 13.8482 2.72844 13.5211 3.07055L4.33801 12.2818C4.25701 12.3469 4.198 12.4355 4.16898 12.5353L2.98593 17.9719C2.97 18.0681 2.977 18.1668 3.00637 18.2598C3.03574 18.3528 3.08665 18.4375 3.15496 18.5072C3.25898 18.6133 3.40072 18.674 3.54931 18.6761ZM16.0563 3.1269C17.4098 3.12679 18.5071 4.22395 18.5072 5.57744L18.507 5.60574C18.5116 5.92484 18.4515 6.24156 18.3305 6.53686C18.2095 6.83215 18.03 7.09991 17.8028 7.32403L14.338 3.83106C14.5641 3.60644 14.8322 3.42863 15.127 3.3078C15.4219 3.18697 15.7377 3.12549 16.0563 3.1269ZM13.5493 4.64801L17.0141 8.11278L8.98589 16.1128L5.52112 12.6761L13.5493 4.64801ZM5.07042 13.8029L7.85913 16.5916L4.28167 17.3804L5.07042 13.8029ZM21.4366 21.7184H2.56338C2.25222 21.7184 2 21.9706 2 22.2818C2 22.593 2.25222 22.8452 2.56338 22.8452H21.4366C21.7478 22.8452 22 22.593 22 22.2818C22 21.9706 21.7478 21.7184 21.4366 21.7184Z" fill="#4C5157"/>
</svg>
