<svg width="31" height="31" viewBox="0 0 31 31" fill="none" xmlns="http://www.w3.org/2000/svg">
<path d="M19 15.3389C20.7969 15.3389 22.4131 15.6074 23.8486 16.1445C25.2842 16.6816 26.5098 17.3799 27.5254 18.2393C28.5508 19.0986 29.332 20.0215 29.8691 21.0078C30.4062 21.9844 30.6748 22.9219 30.6748 23.8203C30.6748 24.4453 30.4502 24.9189 30.001 25.2412C29.5615 25.5635 28.7852 25.7246 27.6719 25.7246H15.9824C16.168 25.0605 16.2607 24.3525 16.2607 23.6006C16.2607 22.2139 15.9629 20.9248 15.3672 19.7334C14.7715 18.5322 13.9805 17.5166 12.9941 16.6865C13.8242 16.2764 14.7422 15.9492 15.748 15.7051C16.7539 15.4609 17.8379 15.3389 19 15.3389ZM19.0146 12.8633C18.0088 12.8633 17.0811 12.5947 16.2314 12.0576C15.3916 11.5107 14.7178 10.7734 14.21 9.8457C13.7021 8.91797 13.4482 7.88281 13.4482 6.74023C13.4482 5.61719 13.7021 4.60156 14.21 3.69336C14.7178 2.78516 15.3965 2.06738 16.2461 1.54004C17.0957 1.0127 18.0186 0.749023 19.0146 0.749023C20.0107 0.749023 20.9287 1.0127 21.7686 1.54004C22.6084 2.05762 23.2822 2.76563 23.79 3.66406C24.3076 4.5625 24.5664 5.57813 24.5664 6.71094C24.5664 7.87305 24.3125 8.91797 23.8047 9.8457C23.2969 10.7734 22.6182 11.5107 21.7686 12.0576C20.9287 12.5947 20.0107 12.8633 19.0146 12.8633ZM7.22266 30.6904C6.25586 30.6904 5.34277 30.5049 4.4834 30.1338C3.62402 29.7725 2.87207 29.2646 2.22754 28.6104C1.57324 27.9561 1.06055 27.1992 0.689453 26.3398C0.318359 25.4805 0.132812 24.5674 0.132812 23.6006C0.132812 22.3018 0.455078 21.1152 1.09961 20.041C1.74414 18.9668 2.60352 18.1123 3.67773 17.4775C4.74219 16.833 5.92383 16.5107 7.22266 16.5107C8.51172 16.5107 9.69336 16.833 10.7676 17.4775C11.8516 18.1123 12.7109 18.9668 13.3457 20.041C13.9902 21.1152 14.3125 22.3018 14.3125 23.6006C14.3125 24.5674 14.1221 25.4756 13.7412 26.3252C13.3701 27.1846 12.8574 27.9414 12.2031 28.5957C11.5488 29.25 10.792 29.7627 9.93262 30.1338C9.08301 30.5049 8.17969 30.6904 7.22266 30.6904ZM7.22266 28.0684C7.48633 28.0684 7.70117 27.9854 7.86719 27.8193C8.0332 27.6533 8.11621 27.4385 8.11621 27.1748V24.4941H10.7969C11.0605 24.4941 11.2754 24.4111 11.4414 24.2451C11.6074 24.0889 11.6904 23.874 11.6904 23.6006C11.6904 23.3271 11.6074 23.1123 11.4414 22.9561C11.2754 22.79 11.0605 22.707 10.7969 22.707H8.11621V20.041C8.11621 19.7676 8.0332 19.5479 7.86719 19.3818C7.70117 19.2158 7.48633 19.1328 7.22266 19.1328C6.94922 19.1328 6.72949 19.2158 6.56348 19.3818C6.39746 19.5479 6.31445 19.7676 6.31445 20.041V22.707H3.64844C3.38477 22.707 3.16992 22.79 3.00391 22.9561C2.83789 23.1123 2.75488 23.3271 2.75488 23.6006C2.75488 23.874 2.83789 24.0889 3.00391 24.2451C3.16992 24.4111 3.38477 24.4941 3.64844 24.4941H6.31445V27.1748C6.31445 27.4385 6.39746 27.6533 6.56348 27.8193C6.72949 27.9854 6.94922 28.0684 7.22266 28.0684Z" fill="#F8B500"/>
</svg>
