<svg width="24" height="24" viewBox="0 0 24 24" fill="none" xmlns="http://www.w3.org/2000/svg">
<g id="store">
<path id="store_2" d="M21.5452 7.87097L20.5061 4.79897C20.0171 3.35497 19.4121 2.25098 16.5001 2.25098H7.50013C4.58813 2.25098 3.98312 3.35497 3.49512 4.79897L2.45411 7.87196C1.99311 9.23596 2.33613 10.688 3.25013 11.644V18C3.25013 20.418 4.58213 21.75 7.00013 21.75H17.0001C19.4181 21.75 20.7501 20.418 20.7501 18V11.643C21.6641 10.687 22.0062 9.23497 21.5452 7.87097ZM3.87513 8.35197L4.91614 5.27898C5.26014 4.26098 5.43313 3.74997 7.50013 3.74997H16.5001C18.5671 3.74997 18.7401 4.26098 19.0851 5.27898L20.1242 8.35097C20.4682 9.36497 20.1041 10.455 19.2611 10.942C18.0341 11.65 16.1771 10.944 15.7521 9.74896C15.6461 9.44996 15.3622 9.24997 15.0452 9.24997C15.0442 9.24997 15.0431 9.24997 15.0421 9.24997C14.7241 9.25097 14.4402 9.45297 14.3362 9.75397C14.0402 10.607 13.0361 11.25 12.0001 11.25C10.9641 11.25 9.96007 10.607 9.66407 9.75397C9.56007 9.45297 9.27613 9.25097 8.95814 9.24997C8.67314 9.28397 8.35417 9.44896 8.24817 9.74896C7.94417 10.604 6.93517 11.25 5.89918 11.25C5.48818 11.25 5.08714 11.144 4.73914 10.942C3.89614 10.456 3.53213 9.36597 3.87513 8.35197ZM13.2802 20.25H10.7802V17.5C10.7802 16.811 11.3412 16.25 12.0302 16.25C12.7192 16.25 13.2802 16.811 13.2802 17.5V20.25ZM17.0001 20.25H14.7802V17.5C14.7802 15.983 13.5472 14.75 12.0302 14.75C10.5132 14.75 9.28016 15.983 9.28016 17.5V20.25H7.00013C5.42313 20.25 4.75013 19.577 4.75013 18V12.554C6.22013 12.986 7.95618 12.501 8.95118 11.413C9.69318 12.228 10.8241 12.749 12.0001 12.749C13.1761 12.749 14.3071 12.228 15.0491 11.413C15.7951 12.228 16.9271 12.749 18.1011 12.749C18.4941 12.749 18.8801 12.682 19.2501 12.566V18C19.2501 19.577 18.5771 20.25 17.0001 20.25Z" fill="#5B5B5B"/>
</g>
</svg>
