<svg width="40" height="40" viewBox="0 0 40 40" fill="none" xmlns="http://www.w3.org/2000/svg">
<g id="briefcase">
<path id="Vector" d="M35 19.9166V30C35 33.3333 33.3333 35 30 35H10C6.66667 35 5 33.3333 5 30V19.8999C5.5 20.4832 6.13333 20.9333 6.88333 21.2333C8.71666 21.95 11.2333 22.8001 14.1667 23.4001C14.85 23.5334 15.5167 23.1999 15.9 22.6333C16.8 21.2833 18.3 20.3001 20 20.3001C21.7 20.3001 23.2 21.2833 24.1 22.6333C24.5 23.1999 25.1667 23.5334 25.85 23.4001C28.7833 22.8001 31.3 21.95 33.1167 21.2333C33.85 20.9333 34.5 20.4833 35 19.9166Z" fill="#7D7366"/>
<path id="Vector_2" d="M35 15V19.9166C34.5 20.4833 33.85 20.9333 33.1167 21.2333C31.3 21.95 28.7833 22.8001 25.85 23.4001C25.1667 23.5334 24.5 23.1999 24.1 22.6333C23.2 21.2833 21.7 20.3001 20 20.3001C18.3 20.3001 16.8 21.2833 15.9 22.6333C15.5167 23.1999 14.85 23.5334 14.1667 23.4001C11.2333 22.8001 8.71666 21.95 6.88333 21.2333C6.13333 20.9333 5.5 20.4832 5 19.8999V15C5 11.6667 6.66667 10 10 10H30C33.3333 10 35 11.6667 35 15Z" fill="#F8B500"/>
<path id="Vector_3" d="M27.9154 7.49998V9.99998H25.4154V7.49998C25.4154 7.26665 25.232 7.08331 24.9987 7.08331H14.9987C14.7654 7.08331 14.582 7.26665 14.582 7.49998V9.99998H12.082V7.49998C12.082 5.89998 13.382 4.58331 14.9987 4.58331H24.9987C26.5987 4.58331 27.9154 5.89998 27.9154 7.49998Z" fill="#F8B500"/>
<path id="Vector_4" d="M20.002 26.6666C19.0837 26.6666 18.332 25.92 18.332 25C18.332 24.08 19.0704 23.3333 19.9887 23.3333H20.002C20.9204 23.3333 21.6654 24.08 21.6654 25C21.6654 25.92 20.9204 26.6666 20.002 26.6666Z" fill="#F8B500"/>
</g>
</svg>
