<svg width="64" height="64" viewBox="0 0 64 64" fill="none" xmlns="http://www.w3.org/2000/svg">
<g clip-path="url(#clip0_12186_105498)">
<path d="M62.1009 22.8066L54.2337 16.2408V6.9259C54.2337 6.12162 53.5318 5.50745 52.7129 5.50745H41.2629L36.6713 1.67618C33.966 -0.561159 30.047 -0.561159 27.3417 1.69081L22.75 5.50745H11.1539C10.3496 5.50745 9.63306 6.107 9.63306 6.9259V16.3871L1.91204 22.8066C1.59033 23.0845 1.40023 23.5086 1.41485 23.9326H1.4441V56.6739C1.4441 60.7099 4.69044 64.0001 8.7118 64.0001H55.2865C59.3225 64.0001 62.5543 60.6952 62.5543 56.6739V23.9326H62.5835C62.6127 23.4939 62.4373 23.0845 62.1009 22.8066ZM54.2337 20.0429L58.84 23.8741L54.2337 27.296V20.0429ZM29.2135 3.92815C30.8366 2.58282 33.191 2.59744 34.8141 3.94277L36.6713 5.50745H27.3271L29.2135 3.92815ZM12.5577 8.43208H51.309V29.4748L34.6533 41.8752C33.074 43.0305 30.939 43.0305 29.3743 41.8752L12.5577 29.3578V8.43208ZM9.63306 20.1745V27.179L5.173 23.8595L9.63306 20.1745ZM59.6442 56.6593C59.6589 59.0867 57.714 61.0608 55.3012 61.0754H8.7118C6.29898 61.0608 4.3541 59.0867 4.36873 56.6739V26.8426L27.6488 44.2296C30.2371 46.1452 33.7759 46.1452 36.3642 44.2296L59.6442 26.8426V56.6593Z" fill="#5B5B5B"/>
<path d="M30.8373 20.1304H22.9408C22.1366 20.1304 21.4785 20.7884 21.4785 21.5927C21.4785 22.397 22.1366 23.055 22.9408 23.055H30.8373C31.6416 23.055 32.2997 22.397 32.2997 21.5927C32.2997 20.7884 31.6416 20.1304 30.8373 20.1304ZM41.0735 27.4419H22.9408C22.1366 27.4419 21.4785 28.1 21.4785 28.9043C21.4785 29.7085 22.1366 30.3666 22.9408 30.3666H41.0735C41.8778 30.3666 42.5359 29.7085 42.5359 28.9043C42.5359 28.1 41.8778 27.4419 41.0735 27.4419Z" fill="#5B5B5B"/>
</g>
<defs>
<clipPath id="clip0_12186_105498">
<rect width="64" height="64" fill="white"/>
</clipPath>
</defs>
</svg>
