<svg width="24" height="25" viewBox="0 0 24 25" fill="none" xmlns="http://www.w3.org/2000/svg">
<path d="M22.8549 12.9815C22.8747 12.8201 22.9038 12.6608 22.9038 12.4932C22.9038 12.3256 22.8747 12.1663 22.8549 12.0049L23.7929 11.2949C23.8941 11.2182 23.9639 11.1073 23.989 10.9828C24.0141 10.8584 23.9929 10.7291 23.9293 10.6192L23.0871 9.16161C23.0237 9.05176 22.9224 8.96882 22.8022 8.92838C22.682 8.88793 22.5512 8.89275 22.4343 8.94193L21.3546 9.3969C21.0934 9.19199 20.8068 9.02158 20.502 8.88987L20.3583 7.74361C20.3426 7.61773 20.2814 7.50193 20.1863 7.41796C20.0912 7.33399 19.9688 7.28763 19.8419 7.2876H18.1584C18.0316 7.28763 17.9091 7.33399 17.814 7.41796C17.7189 7.50193 17.6578 7.61773 17.642 7.74361L17.4984 8.88987C17.1936 9.02174 16.9071 9.19214 16.6457 9.3969L15.566 8.94193C15.449 8.89245 15.318 8.88748 15.1975 8.92794C15.0771 8.96841 14.9756 9.05151 14.9122 9.16161L14.071 10.6192C14.0074 10.7291 13.9862 10.8584 14.0113 10.9828C14.0365 11.1073 14.1062 11.2182 14.2074 11.2949L15.1454 12.0049C15.1246 12.1663 15.0955 12.3256 15.0955 12.4932C15.0955 12.6608 15.1246 12.8201 15.1444 12.9815L14.2063 13.6915C14.1051 13.7681 14.0354 13.8791 14.0103 14.0035C13.9852 14.128 14.0064 14.2573 14.07 14.3672L14.9122 15.8258C14.9756 15.9356 15.0769 16.0186 15.1971 16.059C15.3173 16.0995 15.4481 16.0946 15.565 16.0455L16.6446 15.5895C16.908 15.7904 17.1881 15.9674 17.4973 16.0965L17.641 17.2427C17.6567 17.3686 17.7179 17.4844 17.813 17.5684C17.908 17.6524 18.0305 17.6987 18.1574 17.6988H19.8409C19.9677 17.6987 20.0902 17.6524 20.1853 17.5684C20.2804 17.4844 20.3415 17.3686 20.3573 17.2427L20.5009 16.0965C20.8101 15.9674 21.0912 15.7893 21.3536 15.5895L22.4332 16.0444C22.5501 16.0936 22.681 16.0984 22.8012 16.058C22.9213 16.0175 23.0226 15.9346 23.086 15.8247L23.9283 14.3661C23.9918 14.2563 24.0131 14.1269 23.988 14.0025C23.9628 13.8781 23.8931 13.7671 23.7919 13.6905L22.8549 12.9815ZM18.9996 14.5754C18.7224 14.5817 18.4466 14.5325 18.1886 14.4307C17.9306 14.329 17.6955 14.1767 17.4971 13.9828C17.2988 13.7889 17.1412 13.5574 17.0335 13.3018C16.9259 13.0461 16.8704 12.7716 16.8703 12.4942C16.8703 12.2169 16.9256 11.9423 17.0331 11.6866C17.1406 11.4309 17.2981 11.1993 17.4964 11.0053C17.6946 10.8114 17.9297 10.659 18.1876 10.5571C18.4456 10.4552 18.7213 10.4059 18.9986 10.412C19.5426 10.424 20.0604 10.6486 20.4409 11.0375C20.8215 11.4265 21.0347 11.949 21.0348 12.4932C21.0349 13.0374 20.822 13.56 20.4417 13.9491C20.0613 14.3383 19.5437 14.5631 18.9996 14.5754Z" fill="#F8B500"/>
<path d="M14.5756 18.7401V21.8634C14.5756 22.1395 14.4659 22.4044 14.2707 22.5996C14.0754 22.7949 13.8106 22.9045 13.5345 22.9045H3.12335C2.84723 22.9045 2.58241 22.7949 2.38717 22.5996C2.19192 22.4044 2.08223 22.1395 2.08223 21.8634V3.12335C2.08223 2.84723 2.19192 2.58241 2.38717 2.38717C2.58241 2.19192 2.84723 2.08223 3.12335 2.08223H3.6439C3.78168 2.08222 3.91809 2.10956 4.04523 2.16266C4.17236 2.21576 4.28769 2.29357 4.38454 2.39157C4.48138 2.48957 4.5578 2.60582 4.60938 2.73358C4.66096 2.86134 4.68667 2.99807 4.68502 3.13584C4.67773 3.70637 5.1556 4.16446 5.72614 4.16446H10.9317C11.5022 4.16446 11.9801 3.70637 11.9728 3.13584C11.9712 2.99807 11.9969 2.86134 12.0485 2.73358C12.1 2.60582 12.1765 2.48957 12.2733 2.39157C12.3702 2.29357 12.4855 2.21576 12.6126 2.16266C12.7398 2.10956 12.8762 2.08222 13.0139 2.08223H13.5345C13.8106 2.08223 14.0754 2.19192 14.2707 2.38717C14.4659 2.58241 14.5756 2.84723 14.5756 3.12335V6.24669C14.5756 6.52281 14.6853 6.78763 14.8806 6.98287C15.0758 7.17812 15.3406 7.28781 15.6167 7.28781C15.8929 7.28781 16.1577 7.17812 16.3529 6.98287C16.5482 6.78763 16.6578 6.52281 16.6578 6.24669V3.12335C16.6578 2.29498 16.3288 1.50055 15.743 0.914807C15.1573 0.329066 14.3629 0 13.5345 0L3.12335 0C2.29498 0 1.50055 0.329066 0.914807 0.914807C0.329066 1.50055 0 2.29498 0 3.12335L0 21.8634C0 22.6918 0.329066 23.4862 0.914807 24.072C1.50055 24.6577 2.29498 24.9868 3.12335 24.9868H13.5345C14.3629 24.9868 15.1573 24.6577 15.743 24.072C16.3288 23.4862 16.6578 22.6918 16.6578 21.8634V18.7401C16.6578 18.464 16.5482 18.1991 16.3529 18.0039C16.1577 17.8087 15.8929 17.699 15.6167 17.699C15.3406 17.699 15.0758 17.8087 14.8806 18.0039C14.6853 18.1991 14.5756 18.464 14.5756 18.7401Z" fill="#F8B500"/>
</svg>
