<svg width="20" height="18" viewBox="0 0 20 18" fill="none" xmlns="http://www.w3.org/2000/svg">
<path d="M19.6359 5.77826L16.8568 0.91478C16.7956 0.808753 16.7074 0.720784 16.6013 0.659779C16.4951 0.598775 16.3747 0.566902 16.2523 0.567388H3.74621C3.62378 0.566902 3.5034 0.598775 3.39725 0.659779C3.29111 0.720784 3.20296 0.808753 3.14175 0.91478L0.362618 5.77826C0.301519 5.88408 0.269411 6.00415 0.269532 6.12634C0.269652 6.24854 0.301998 6.36854 0.363305 6.47424C0.424613 6.57995 0.512713 6.66761 0.618719 6.72839C0.724724 6.78917 0.844885 6.82092 0.967079 6.82044H2.00925V15.8526C2.00925 16.4054 2.22885 16.9356 2.61975 17.3265C3.01064 17.7174 3.5408 17.937 4.0936 17.937H15.9049C16.4577 17.937 16.9879 17.7174 17.3788 17.3265C17.7697 16.9356 17.9893 16.4054 17.9893 15.8526V6.82044H19.0314C19.1536 6.82092 19.2738 6.78917 19.3798 6.72839C19.4858 6.66761 19.5739 6.57995 19.6352 6.47424C19.6965 6.36854 19.7289 6.24854 19.729 6.12634C19.7291 6.00415 19.697 5.88408 19.6359 5.77826ZM14.168 13.4209C14.168 13.6051 14.0948 13.7819 13.9645 13.9122C13.8342 14.0425 13.6574 14.1157 13.4732 14.1157H6.52535C6.34108 14.1157 6.16436 14.0425 6.03406 13.9122C5.90376 13.7819 5.83056 13.6051 5.83056 13.4209V10.2944C5.83056 10.1101 5.90376 9.93336 6.03406 9.80307C6.16436 9.67277 6.34108 9.59957 6.52535 9.59957H13.4732C13.6574 9.59957 13.8342 9.67277 13.9645 9.80307C14.0948 9.93336 14.168 10.1101 14.168 10.2944V13.4209Z" fill="#BEBEBE"/>
</svg>
