<svg width="41" height="30" viewBox="0 0 41 30" fill="none" xmlns="http://www.w3.org/2000/svg">
<path d="M13.2259 21.4745L34.7599 1.37157C35.4291 0.746903 36.2807 0.43457 37.3148 0.43457C38.3489 0.43457 39.2005 0.746903 39.8697 1.37157C40.5388 1.99624 40.8734 2.79127 40.8734 3.75666C40.8734 4.72206 40.5388 5.51709 39.8697 6.14176L15.7808 28.6298C15.0508 29.3112 14.1992 29.652 13.2259 29.652C12.2526 29.652 11.401 29.3112 10.671 28.6298L1.18144 19.7709C0.512301 19.1462 0.177734 18.3512 0.177734 17.3858C0.177734 16.4204 0.512301 15.6253 1.18144 15.0007C1.85057 14.376 2.7022 14.0637 3.73632 14.0637C4.77044 14.0637 5.62207 14.376 6.29121 15.0007L13.2259 21.4745Z" fill="white"/>
</svg>
