<svg width="24" height="24" viewBox="0 0 24 24" fill="none" xmlns="http://www.w3.org/2000/svg">
<path d="M10.4623 16.7201L8.34121 18.8412C7.46185 19.7206 6.0378 19.7206 5.15918 18.8414C4.28038 17.9626 4.28038 16.5384 5.159 15.6598L9.40191 11.4169C10.2805 10.5382 11.7047 10.5382 12.5833 11.4169C12.8762 11.7097 13.3511 11.7097 13.644 11.4169C13.9369 11.124 13.9369 10.649 13.644 10.3561C12.1796 8.8917 9.80566 8.8917 8.34121 10.3561L4.09834 14.599C2.63389 16.0635 2.63389 18.4374 4.09834 19.9019C5.56261 21.3671 7.93672 21.3671 9.40195 19.9019L11.523 17.7808C11.8159 17.4879 11.8159 17.013 11.523 16.7201C11.2301 16.4272 10.7552 16.4272 10.4623 16.7201Z" fill="#5B5B5B"/>
<path d="M19.9001 4.09834C18.4357 2.63389 16.0609 2.63389 14.5965 4.09834L12.0517 6.64317C11.7588 6.93607 11.7588 7.41098 12.0517 7.70388C12.3446 7.99677 12.8195 7.99677 13.1124 7.70388L15.6572 5.15904C16.5358 4.28038 17.9607 4.28038 18.8394 5.15904C19.718 6.03766 19.718 7.46185 18.8394 8.34047L14.1727 13.0072C13.2941 13.8858 11.8699 13.8858 10.9913 13.0072C10.6984 12.7143 10.2235 12.7143 9.93061 13.0072C9.63771 13.3001 9.63771 13.775 9.93061 14.0679C11.3951 15.5323 13.769 15.5323 15.2334 14.0679L19.9001 9.40121C21.3646 7.93676 21.3646 5.56279 19.9001 4.09834Z" fill="#5B5B5B"/>
</svg>
