<svg width="56" height="56" viewBox="0 0 56 56" fill="none" xmlns="http://www.w3.org/2000/svg">
<path d="M28.0003 51.3334C40.887 51.3334 51.3337 40.8867 51.3337 28.0001C51.3337 15.1134 40.887 4.66675 28.0003 4.66675C15.1137 4.66675 4.66699 15.1134 4.66699 28.0001C4.66699 40.8867 15.1137 51.3334 28.0003 51.3334Z" fill="#F8B500"/>
<path d="M28.0465 38.5C26.7585 38.5 25.7012 37.4547 25.7012 36.1667C25.7012 34.8787 26.7351 33.8333 28.0231 33.8333H28.0465C29.3368 33.8333 30.3798 34.8787 30.3798 36.1667C30.3798 37.4547 29.3345 38.5 28.0465 38.5ZM29.7498 28.1658V17.5C29.7498 16.534 28.9658 15.75 27.9998 15.75C27.0338 15.75 26.2498 16.534 26.2498 17.5V28.1658C26.2498 29.1318 27.0338 29.9158 27.9998 29.9158C28.9658 29.9158 29.7498 29.1318 29.7498 28.1658Z" fill="#7D7366"/>
</svg>
