<svg width="36" height="36" viewBox="0 0 36 36" fill="none" xmlns="http://www.w3.org/2000/svg">
<g id="papers-text">
<path id="Vector" d="M14.9255 26.0747C11.6566 25.4983 10.3114 23.5764 10.8878 20.3075L12.8934 8.93432L12.8872 8.92529L7.22919 9.92143C3.96028 10.5023 2.61599 12.4272 3.19689 15.6961L5.50434 28.7718C6.06882 32.0407 7.99366 33.3846 11.2626 32.8037L21.0691 31.0774C23.3584 30.6622 24.7206 29.5841 25.085 27.8578L25.0744 27.8399C24.958 27.8235 24.8534 27.8235 24.7325 27.8026L14.9255 26.0747Z" fill="#7D7366"/>
<path id="Vector_2" d="M28.7646 4.92464L18.9595 3.19533C15.6921 2.61891 13.7686 3.96437 13.1921 7.23328L12.8921 8.93269L10.8865 20.306C10.3101 23.5749 11.6554 25.4968 14.9243 26.0732L24.7283 27.8025C24.8492 27.8234 24.9538 27.8234 25.0703 27.8398C28.1226 28.2594 29.9397 26.9124 30.4953 23.7645L32.8013 10.6919C33.3792 7.42448 32.0335 5.50107 28.7646 4.92464Z" fill="#F8B500"/>
<path id="Vector_3" d="M26.7489 17.4836C26.6847 17.4836 26.6192 17.4792 26.5535 17.4672L16.7498 15.7379C16.1405 15.6304 15.7326 15.0496 15.8416 14.4403C15.9477 13.831 16.5348 13.4248 17.1381 13.5323L26.9417 15.2616C27.551 15.3691 27.9586 15.95 27.8496 16.5592C27.7555 17.1013 27.2835 17.4836 26.7489 17.4836ZM28.8966 11.688C29.0042 11.0788 28.5977 10.4978 27.9885 10.3903L18.1848 8.661C17.5815 8.55348 16.9947 8.96121 16.8887 9.569C16.7812 10.1783 17.1872 10.7592 17.7965 10.8667L27.6002 12.596C27.6659 12.6079 27.7317 12.6124 27.796 12.6124C28.3291 12.6139 28.8011 12.2316 28.8966 11.688ZM23.3068 20.8317C23.4144 20.2224 23.0083 19.6415 22.399 19.534L16.2704 18.4528C15.6641 18.3438 15.0803 18.753 14.9743 19.3608C14.8668 19.9701 15.2728 20.551 15.8821 20.6585L22.0107 21.7397C22.0765 21.7516 22.142 21.7561 22.2062 21.7561C22.7393 21.7576 23.2113 21.3753 23.3068 20.8317Z" fill="#7D7366"/>
</g>
</svg>
