<svg width="79" height="39" viewBox="0 0 79 39" fill="none" xmlns="http://www.w3.org/2000/svg">
<path d="M26.4531 38.5762C23.0443 38.5762 21.3398 37.4518 21.3398 35.2031C21.3398 33.8424 21.748 32.4102 22.5645 30.9062C23.3952 29.388 24.584 27.9701 26.1309 26.6523C27.6921 25.3346 29.5684 24.2604 31.7598 23.4297C33.9512 22.5846 36.4147 22.1621 39.1504 22.1621C41.9004 22.1621 44.3711 22.5846 46.5625 23.4297C48.7682 24.2604 50.6445 25.3346 52.1914 26.6523C53.7383 27.9701 54.9199 29.388 55.7363 30.9062C56.5671 32.4102 56.9824 33.8424 56.9824 35.2031C56.9824 37.4518 55.2852 38.5762 51.8906 38.5762H26.4531ZM25.6367 35.2676H52.707C52.9505 35.2676 53.1224 35.2246 53.2227 35.1387C53.3372 35.0671 53.3945 34.931 53.3945 34.7305C53.3945 33.9284 53.0794 33.0046 52.4492 31.959C51.8333 30.8991 50.9167 29.8822 49.6992 28.9082C48.4961 27.9199 47.0065 27.1035 45.2305 26.459C43.4688 25.8001 41.4421 25.4707 39.1504 25.4707C36.873 25.4707 34.8535 25.8001 33.0918 26.459C31.3301 27.1035 29.8405 27.9199 28.623 28.9082C27.4199 29.8822 26.5033 30.8991 25.873 31.959C25.2428 33.0046 24.9277 33.9284 24.9277 34.7305C24.9277 34.931 24.9779 35.0671 25.0781 35.1387C25.1927 35.2246 25.3789 35.2676 25.6367 35.2676ZM39.1719 19.4551C37.5534 19.4551 36.071 19.0254 34.7246 18.166C33.3926 17.3066 32.3255 16.1536 31.5234 14.707C30.7357 13.2604 30.3346 11.6562 30.3203 9.89453C30.3203 8.17578 30.7214 6.60742 31.5234 5.18945C32.3255 3.75716 33.3926 2.61849 34.7246 1.77344C36.071 0.928385 37.5534 0.505859 39.1719 0.505859C40.819 0.505859 42.3086 0.921224 43.6406 1.75195C44.9727 2.58268 46.0326 3.70703 46.8203 5.125C47.6224 6.54297 48.0234 8.11849 48.0234 9.85156C48.0234 11.6133 47.6224 13.2246 46.8203 14.6855C46.0182 16.1322 44.944 17.2923 43.5977 18.166C42.2656 19.0254 40.7904 19.4551 39.1719 19.4551ZM39.1719 16.168C40.1458 16.168 41.0339 15.8887 41.8359 15.3301C42.6523 14.7572 43.304 13.998 43.791 13.0527C44.278 12.0931 44.5215 11.026 44.5215 9.85156C44.5215 8.72005 44.278 7.69596 43.791 6.7793C43.3184 5.86263 42.6738 5.13932 41.8574 4.60938C41.0553 4.07943 40.1602 3.81445 39.1719 3.81445C38.1979 3.81445 37.3027 4.08659 36.4863 4.63086C35.6842 5.16081 35.0397 5.89128 34.5527 6.82227C34.0658 7.73893 33.8294 8.76302 33.8438 9.89453C33.8438 11.069 34.0872 12.1289 34.5742 13.0742C35.0612 14.0195 35.7057 14.7715 36.5078 15.3301C37.3242 15.8887 38.2122 16.168 39.1719 16.168ZM4.43164 38.5762C3.01367 38.5762 1.94661 38.2826 1.23047 37.6953C0.528646 37.1081 0.177734 36.2272 0.177734 35.0527C0.177734 33.3626 0.578776 31.7513 1.38086 30.2188C2.18294 28.6719 3.29297 27.2897 4.71094 26.0723C6.12891 24.8548 7.76888 23.8952 9.63086 23.1934C11.5072 22.4915 13.5195 22.1406 15.668 22.1406C17.3008 22.1406 18.8906 22.3555 20.4375 22.7852C21.9844 23.2148 23.4095 23.8451 24.7129 24.6758C24.1973 25.0052 23.7389 25.3704 23.3379 25.7715C22.9368 26.1582 22.5645 26.5736 22.2207 27.0176C21.6048 26.6738 20.9388 26.3802 20.2227 26.1367C19.5208 25.8789 18.7832 25.6855 18.0098 25.5566C17.2507 25.4277 16.4701 25.3633 15.668 25.3633C14.0352 25.3633 12.4811 25.6283 11.0059 26.1582C9.54492 26.6738 8.2487 27.3757 7.11719 28.2637C6 29.1517 5.11914 30.1615 4.47461 31.293C3.83008 32.4245 3.50781 33.5918 3.50781 34.7949C3.50781 34.9811 3.55078 35.1172 3.63672 35.2031C3.73698 35.2891 3.88737 35.332 4.08789 35.332H18.6543C18.5827 35.9909 18.7044 36.6211 19.0195 37.2227C19.349 37.8242 19.7786 38.2754 20.3086 38.5762H4.43164ZM15.6895 19.9277C14.2715 19.9277 12.9824 19.5482 11.8223 18.7891C10.6764 18.0299 9.7526 17.0202 9.05078 15.7598C8.34896 14.485 7.99805 13.0742 7.99805 11.5273C7.99805 10.0234 8.3418 8.64844 9.0293 7.40234C9.73112 6.14193 10.6621 5.13932 11.8223 4.39453C12.9824 3.64974 14.2715 3.27734 15.6895 3.27734C17.1074 3.27734 18.3965 3.64974 19.5566 4.39453C20.7168 5.125 21.6406 6.11328 22.3281 7.35938C23.0299 8.60547 23.3809 9.98047 23.3809 11.4844C23.3809 13.0312 23.0299 14.4421 22.3281 15.7168C21.6406 16.9915 20.7096 18.0156 19.5352 18.7891C18.375 19.5482 17.0931 19.9277 15.6895 19.9277ZM15.6895 16.6621C16.4915 16.6621 17.2292 16.4329 17.9023 15.9746C18.5755 15.5163 19.1126 14.8932 19.5137 14.1055C19.929 13.3177 20.1367 12.444 20.1367 11.4844C20.1367 10.5677 19.9362 9.73698 19.5352 8.99219C19.1341 8.23307 18.5898 7.63151 17.9023 7.1875C17.2292 6.74349 16.4915 6.52148 15.6895 6.52148C14.873 6.52148 14.1283 6.75065 13.4551 7.20898C12.7962 7.65299 12.2663 8.25456 11.8652 9.01367C11.4642 9.77279 11.2637 10.6107 11.2637 11.5273C11.2637 12.4727 11.4642 13.3392 11.8652 14.127C12.2663 14.9004 12.8034 15.5163 13.4766 15.9746C14.1497 16.4329 14.8874 16.6621 15.6895 16.6621ZM73.9121 38.5762H58.0566C58.5723 38.2754 58.9876 37.8242 59.3027 37.2227C59.6322 36.6211 59.7611 35.9909 59.6895 35.332H74.2773C74.4635 35.332 74.5996 35.2891 74.6855 35.2031C74.7858 35.1172 74.8359 34.9811 74.8359 34.7949C74.8359 33.5918 74.5137 32.4245 73.8691 31.293C73.2389 30.1615 72.3581 29.1517 71.2266 28.2637C70.0951 27.3757 68.7988 26.6738 67.3379 26.1582C65.877 25.6283 64.3301 25.3633 62.6973 25.3633C61.8809 25.3633 61.0859 25.4277 60.3125 25.5566C59.5534 25.6855 58.8158 25.8789 58.0996 26.1367C57.3978 26.3802 56.7318 26.6738 56.1016 27.0176C55.7865 26.5736 55.4212 26.1582 55.0059 25.7715C54.6048 25.3704 54.1536 25.0052 53.6523 24.6758C54.9557 23.8451 56.3809 23.2148 57.9277 22.7852C59.4746 22.3555 61.0645 22.1406 62.6973 22.1406C64.8171 22.1406 66.8151 22.4915 68.6914 23.1934C70.5677 23.8952 72.2148 24.8548 73.6328 26.0723C75.0508 27.2897 76.1608 28.6719 76.9629 30.2188C77.7793 31.7513 78.1875 33.3626 78.1875 35.0527C78.1875 36.2272 77.8294 37.1081 77.1133 37.6953C76.3971 38.2826 75.3301 38.5762 73.9121 38.5762ZM62.6758 19.9277C61.2578 19.9277 59.9616 19.5482 58.7871 18.7891C57.627 18.0156 56.7031 16.9915 56.0156 15.7168C55.3281 14.4421 54.9844 13.0312 54.9844 11.4844C54.9844 9.98047 55.3281 8.60547 56.0156 7.35938C56.7174 6.11328 57.6484 5.125 58.8086 4.39453C59.9688 3.64974 61.2578 3.27734 62.6758 3.27734C64.0651 3.27734 65.347 3.64974 66.5215 4.39453C67.696 5.13932 68.627 6.14193 69.3145 7.40234C70.0163 8.64844 70.3672 10.0234 70.3672 11.5273C70.3529 13.0742 69.9948 14.485 69.293 15.7598C68.6055 17.0202 67.6816 18.0299 66.5215 18.7891C65.3613 19.5482 64.0794 19.9277 62.6758 19.9277ZM62.6758 16.6621C63.4779 16.6621 64.2083 16.4329 64.8672 15.9746C65.5404 15.5163 66.0775 14.9004 66.4785 14.127C66.8939 13.3392 67.1016 12.4727 67.1016 11.5273C67.1016 10.6107 66.8939 9.77279 66.4785 9.01367C66.0775 8.25456 65.5404 7.65299 64.8672 7.20898C64.194 6.75065 63.4635 6.52148 62.6758 6.52148C61.8451 6.52148 61.0931 6.74349 60.4199 7.1875C59.7611 7.63151 59.2311 8.23307 58.8301 8.99219C58.429 9.73698 58.2285 10.5677 58.2285 11.4844C58.2285 12.444 58.429 13.3177 58.8301 14.1055C59.2311 14.8932 59.7682 15.5163 60.4414 15.9746C61.1289 16.4329 61.8737 16.6621 62.6758 16.6621Z" fill="#5B5B5B"/>
</svg>
