<svg width="24" height="24" viewBox="0 0 24 24" fill="none" xmlns="http://www.w3.org/2000/svg">
<path fill-rule="evenodd" clip-rule="evenodd" d="M3 17C3 19.2091 4.79086 21 7 21H17C19.2091 21 21 19.2091 21 17V13C21 10.7909 19.2091 9 17 9C16.4477 9 16 9.44771 16 10C16 10.5523 16.4477 11 17 11C18.1046 11 19 11.8954 19 13V17C19 18.1046 18.1046 19 17 19H7C5.89543 19 5 18.1046 5 17V13C5 11.8954 5.89543 11 7 11C7.55228 11 8 10.5523 8 10C8 9.44771 7.55228 9 7 9C4.79086 9 3 10.7909 3 13V17Z" fill="currentColor"/>
<path fill-rule="evenodd" clip-rule="evenodd" d="M13 15C13 15.5523 12.5523 16 12 16C11.4477 16 11 15.5523 11 15V6.39818L9.00892 8.41418L7.58594 7.00879L11.2515 3.2973C11.4379 3.10859 11.6916 3.00166 11.9569 3.00002C12.2221 2.99838 12.4771 3.10217 12.6658 3.28856L16.4143 6.99131L15.0088 8.41418L13 6.4299V15Z" fill="currentColor"/>
</svg>
