<svg id="date" data-name="date" xmlns="http://www.w3.org/2000/svg" width="12" height="12" viewBox="0 0 12 12">
  <path id="Path_740" data-name="Path 740" d="M11.8,4A2.326,2.326,0,0,0,9.718,2V0H8.231V2H3.769V0H2.282V2A2.326,2.326,0,0,0,.2,4Z" fill="#98a6b5"/>
  <path id="Path_741" data-name="Path 741" d="M0,5v5.091A2.063,2.063,0,0,0,2.25,12h7.5A2.063,2.063,0,0,0,12,10.091V5Zm3.75,5.091H2.25V8.818h1.5Zm0-2.545H2.25V6.273h1.5Zm3,2.545H5.25V8.818h1.5Zm0-2.545H5.25V6.273h1.5Zm3,0H8.25V6.273h1.5Z" fill="#98a6b5"/>
</svg>
