<svg width="14" height="14" viewBox="0 0 14 14" fill="none" xmlns="http://www.w3.org/2000/svg">
<g id="Frame">
<g id="Group">
<g id="Layer 51">
<path id="Vector" d="M12.4154 3.24983H9.91536V5.74983H10.7487V4.3665C10.8187 4.46608 10.8874 4.5665 10.9483 4.67066C11.4637 5.5464 11.6737 6.56852 11.5453 7.57653C11.4168 8.58453 10.9573 9.52135 10.2388 10.2399C9.52022 10.9584 8.5834 11.418 7.57539 11.5464C6.56739 11.6748 5.54527 11.4648 4.66953 10.9494L4.24495 11.6665C5.27955 12.275 6.48688 12.5228 7.67753 12.3711C8.86818 12.2194 9.97478 11.6767 10.8237 10.8282C11.6727 9.97966 12.2159 8.87334 12.3682 7.68277C12.5205 6.49219 12.2733 5.28474 11.6654 4.24983C11.6324 4.19316 11.5929 4.14066 11.5574 4.08525H12.4154V3.24983ZM3.2487 9.63316C3.1787 9.53358 3.10995 9.43316 3.04911 9.32899C2.5337 8.45326 2.32371 7.43114 2.45214 6.42313C2.58056 5.41512 3.04011 4.47831 3.75864 3.75977C4.47718 3.04124 5.41399 2.58169 6.422 2.45327C7.43001 2.32484 8.45213 2.53483 9.32786 3.05025L9.75245 2.33316C8.71766 1.724 7.50986 1.47574 6.31869 1.62738C5.12752 1.77901 4.02044 2.32194 3.17127 3.17092C2.32209 4.01991 1.77892 5.12686 1.62702 6.318C1.47512 7.50913 1.7231 8.71698 2.33203 9.75191C2.36495 9.80858 2.40453 9.86108 2.43995 9.91649H1.58203V10.7498H4.08203V8.24983H3.2487V9.63316Z" fill="white"/>
</g>
</g>
</g>
</svg>
