<svg width="24" height="24" viewBox="0 0 24 24" fill="none" xmlns="http://www.w3.org/2000/svg">
<g id="phone">
<path id="phone_2" d="M16.5538 21.752C16.0948 21.752 15.6328 21.69 15.1768 21.565C9.01182 19.873 4.1308 14.995 2.4378 8.83405C2.0528 7.43305 2.26375 5.97304 3.03375 4.72504C3.80675 3.47104 5.07781 2.58604 6.52081 2.29804C7.48081 2.10604 8.42981 2.53404 8.91681 3.35504L10.4798 5.99503C11.2388 7.27703 10.8617 8.92803 9.62067 9.75403L8.48981 10.506C9.54681 12.676 11.3247 14.459 13.4857 15.515L14.2479 14.378C15.0789 13.139 16.7298 12.768 18.0108 13.531L20.6539 15.107C21.4719 15.595 21.8948 16.55 21.7088 17.482C21.4208 18.925 20.5358 20.196 19.2828 20.969C18.4408 21.487 17.5038 21.752 16.5538 21.752ZM6.9798 3.75003C6.9308 3.75003 6.88082 3.75505 6.83282 3.76505C5.77882 3.97605 4.86583 4.61103 4.31183 5.51203C3.76283 6.40203 3.6118 7.44104 3.8858 8.43604C5.4388 14.089 9.91779 18.566 15.5738 20.118C16.5698 20.391 17.6057 20.239 18.4947 19.691C19.3947 19.136 20.0309 18.222 20.2379 17.186C20.2999 16.875 20.1588 16.556 19.8848 16.393L17.2427 14.817C16.6477 14.463 15.8797 14.636 15.4937 15.211L14.3787 16.876C14.1787 17.174 13.7929 17.288 13.4669 17.15C10.5039 15.911 8.09284 13.495 6.85284 10.521C6.71484 10.189 6.8307 9.80703 7.1297 9.60803L8.79083 8.50302C9.36683 8.12002 9.54178 7.35303 9.18878 6.75803L7.62579 4.11902C7.48879 3.88702 7.2408 3.75003 6.9798 3.75003Z" fill="#8E8E8E"/>
</g>
</svg>
