<svg width="24" height="24" viewBox="0 0 24 24" fill="none" xmlns="http://www.w3.org/2000/svg">
<g id="arrow-clockwise">
<path id="Union" fill-rule="evenodd" clip-rule="evenodd" d="M5.31925 12.0014C5.31925 8.31116 8.3108 5.31961 12.0011 5.31961C13.8572 5.31961 15.535 6.07516 16.7469 7.29784C17.0736 7.62749 17.606 8.23091 18.0735 8.77282C18.1842 8.90121 18.2899 9.02453 18.3866 9.13779C18.6829 9.13779 19.1602 9.13779 19.6374 9.13779V7.66335C19.5988 7.61834 19.5593 7.57245 19.5191 7.52588C19.057 6.99018 18.4831 6.33764 18.1028 5.95391C16.5471 4.38438 14.3869 3.41052 12.0011 3.41052C7.25644 3.41052 3.41016 7.2568 3.41016 12.0014C3.41016 16.7461 7.25644 20.5923 12.0011 20.5923C15.1821 20.5923 17.9581 18.8629 19.4421 16.2976C19.7061 15.8412 19.5501 15.2573 19.0938 14.9934C18.6375 14.7294 18.0535 14.8853 17.7896 15.3416C16.6328 17.3413 14.4731 18.6832 12.0011 18.6832C8.3108 18.6832 5.31925 15.6917 5.31925 12.0014Z" fill="#F8B500"/>
<path id="Vector 115 (Stroke)" fill-rule="evenodd" clip-rule="evenodd" d="M21.5465 3.41052V10.0923C21.5465 10.6195 21.1192 11.0469 20.592 11.0469H13.9102V9.13779H19.6374V3.41052H21.5465Z" fill="#F8B500"/>
</g>
</svg>
