<svg width="9" height="7" viewBox="0 0 9 7" fill="none" xmlns="http://www.w3.org/2000/svg">
<path d="M0 6.46331H7.32646V2.26978H0V6.46331ZM0.67401 3.45032C0.751285 3.45032 0.827803 3.4351 0.899194 3.40552C0.970584 3.37594 1.03545 3.33259 1.09008 3.27794C1.14471 3.22329 1.18804 3.15841 1.2176 3.08701C1.24715 3.01561 1.26235 2.93908 1.26233 2.86181H6.06394C6.06394 3.01789 6.12594 3.16758 6.23631 3.27795C6.34668 3.38832 6.49637 3.45032 6.65245 3.45032V5.2812C6.49637 5.2812 6.34668 5.3432 6.23631 5.45357C6.12594 5.56394 6.06394 5.71363 6.06394 5.86971H1.26233C1.26235 5.79244 1.24715 5.71591 1.2176 5.64451C1.18804 5.57311 1.14471 5.50823 1.09008 5.45358C1.03545 5.39893 0.970584 5.35558 0.899194 5.326C0.827803 5.29643 0.751285 5.2812 0.67401 5.2812V3.45032Z" fill="white"/>
<path d="M3.66206 5.2493C4.1496 5.2493 4.54483 4.85407 4.54483 4.36653C4.54483 3.87899 4.1496 3.48376 3.66206 3.48376C3.17453 3.48376 2.7793 3.87899 2.7793 4.36653C2.7793 4.85407 3.17453 5.2493 3.66206 5.2493Z" fill="white"/>
<path d="M0.384766 1.97607H7.62044V5.36079L8.2113 5.29818L7.77305 1.12891L0.384766 1.97607Z" fill="white"/>
<path d="M8.20984 0L0.782227 1.56793L8.03375 0.806073L8.39766 4.26514L9.00026 4.12036L8.20984 0Z" fill="white"/>
</svg>
